<mxfile host="app.diagrams.net" modified="2020-04-07T12:15:02.838Z" agent="5.0 (Windows NT 10.0; Win64; x64) AppleWebKit/537.36 (KHTML, like Gecko) Chrome/80.0.3987.149 Safari/537.36" etag="d4rYgMVG6g39-gHI44YZ" version="12.9.9" type="github">
  <diagram id="cQsCObvcCTZSIr7sii6F" name="Page-1">
    <mxGraphModel dx="1283" dy="957" grid="1" gridSize="10" guides="1" tooltips="1" connect="1" arrows="1" fold="1" page="1" pageScale="1" pageWidth="827" pageHeight="1169" math="0" shadow="0">
      <root>
        <mxCell id="0" />
        <mxCell id="1" parent="0" />
        <mxCell id="9EY23KbuOXxdsdeV2lle-1" value="" style="endArrow=none;dashed=1;html=1;" parent="1" edge="1">
          <mxGeometry width="50" height="50" relative="1" as="geometry">
            <mxPoint y="200" as="sourcePoint" />
            <mxPoint x="820" y="200" as="targetPoint" />
          </mxGeometry>
        </mxCell>
        <mxCell id="9EY23KbuOXxdsdeV2lle-2" value="" style="endArrow=none;dashed=1;html=1;" parent="1" edge="1">
          <mxGeometry width="50" height="50" relative="1" as="geometry">
            <mxPoint y="440" as="sourcePoint" />
            <mxPoint x="820" y="440" as="targetPoint" />
          </mxGeometry>
        </mxCell>
        <mxCell id="9EY23KbuOXxdsdeV2lle-3" value="hbase01" style="rounded=1;whiteSpace=wrap;html=1;fillColor=#e1d5e7;strokeColor=#9673a6;" parent="1" vertex="1">
          <mxGeometry x="10" y="240" width="120" height="60" as="geometry" />
        </mxCell>
        <mxCell id="9EY23KbuOXxdsdeV2lle-4" value="&lt;div&gt;&lt;br&gt;&lt;span style=&quot;color: rgb(0, 0, 0); font-family: helvetica; font-size: 12px; font-style: normal; font-weight: 400; letter-spacing: normal; text-align: center; text-indent: 0px; text-transform: none; word-spacing: 0px; float: none; display: inline;&quot;&gt;hbase02&lt;/span&gt;&lt;br&gt;&lt;br&gt;&lt;/div&gt;" style="rounded=1;whiteSpace=wrap;html=1;fillColor=#e1d5e7;strokeColor=#9673a6;labelBackgroundColor=none;" parent="1" vertex="1">
          <mxGeometry x="140" y="240" width="120" height="60" as="geometry" />
        </mxCell>
        <mxCell id="9EY23KbuOXxdsdeV2lle-5" value="&lt;span style=&quot;font-family: &amp;#34;helvetica&amp;#34;&quot;&gt;hbase03&lt;/span&gt;" style="rounded=1;whiteSpace=wrap;html=1;fillColor=#e1d5e7;strokeColor=#9673a6;" parent="1" vertex="1">
          <mxGeometry x="10" y="320" width="120" height="60" as="geometry" />
        </mxCell>
        <mxCell id="9EY23KbuOXxdsdeV2lle-6" value="&lt;span style=&quot;font-family: &amp;#34;helvetica&amp;#34;&quot;&gt;hbase04&lt;/span&gt;" style="rounded=1;whiteSpace=wrap;html=1;fillColor=#e1d5e7;strokeColor=#9673a6;" parent="1" vertex="1">
          <mxGeometry x="140" y="320" width="120" height="60" as="geometry" />
        </mxCell>
        <mxCell id="9EY23KbuOXxdsdeV2lle-7" value="kuber01" style="rounded=1;whiteSpace=wrap;html=1;fillColor=#dae8fc;strokeColor=#6c8ebf;" parent="1" vertex="1">
          <mxGeometry x="305" y="240" width="120" height="60" as="geometry" />
        </mxCell>
        <mxCell id="9EY23KbuOXxdsdeV2lle-8" value="&lt;div&gt;kuber02&lt;br&gt;&lt;/div&gt;" style="rounded=1;whiteSpace=wrap;html=1;fillColor=#dae8fc;strokeColor=#6c8ebf;" parent="1" vertex="1">
          <mxGeometry x="435" y="240" width="120" height="60" as="geometry" />
        </mxCell>
        <mxCell id="9EY23KbuOXxdsdeV2lle-9" value="kuber03" style="rounded=1;whiteSpace=wrap;html=1;fillColor=#dae8fc;strokeColor=#6c8ebf;" parent="1" vertex="1">
          <mxGeometry x="305" y="320" width="120" height="60" as="geometry" />
        </mxCell>
        <mxCell id="9EY23KbuOXxdsdeV2lle-11" value="pg01" style="rounded=1;whiteSpace=wrap;html=1;fillColor=#d5e8d4;strokeColor=#82b366;" parent="1" vertex="1">
          <mxGeometry x="600" y="240" width="120" height="60" as="geometry" />
        </mxCell>
        <mxCell id="9EY23KbuOXxdsdeV2lle-13" value="" style="endArrow=none;dashed=1;html=1;" parent="1" edge="1">
          <mxGeometry width="50" height="50" relative="1" as="geometry">
            <mxPoint x="280" y="720" as="sourcePoint" />
            <mxPoint x="280" y="200" as="targetPoint" />
          </mxGeometry>
        </mxCell>
        <mxCell id="9EY23KbuOXxdsdeV2lle-14" value="" style="endArrow=none;dashed=1;html=1;" parent="1" edge="1">
          <mxGeometry width="50" height="50" relative="1" as="geometry">
            <mxPoint x="580" y="720" as="sourcePoint" />
            <mxPoint x="580" y="200" as="targetPoint" />
          </mxGeometry>
        </mxCell>
        <mxCell id="9EY23KbuOXxdsdeV2lle-15" value="Физические машины, любо виртуальные машины (частный случай proxmox)" style="text;html=1;strokeColor=none;fillColor=none;align=left;verticalAlign=middle;whiteSpace=wrap;rounded=0;" parent="1" vertex="1">
          <mxGeometry x="10" y="210" width="770" height="20" as="geometry" />
        </mxCell>
        <mxCell id="9EY23KbuOXxdsdeV2lle-17" value="k8s claster" style="rounded=0;whiteSpace=wrap;html=1;align=center;verticalAlign=top;fillColor=#dae8fc;strokeColor=#6c8ebf;" parent="1" vertex="1">
          <mxGeometry x="290" y="475" width="280" height="220" as="geometry" />
        </mxCell>
        <mxCell id="9EY23KbuOXxdsdeV2lle-18" value="" style="shape=internalStorage;whiteSpace=wrap;html=1;backgroundOutline=1;align=left;dx=128;dy=22;" parent="1" vertex="1">
          <mxGeometry x="300" y="505" width="260" height="180" as="geometry" />
        </mxCell>
        <mxCell id="9EY23KbuOXxdsdeV2lle-19" value="System" style="text;html=1;strokeColor=none;fillColor=none;align=center;verticalAlign=middle;whiteSpace=wrap;rounded=0;" parent="1" vertex="1">
          <mxGeometry x="305" y="505" width="125" height="20" as="geometry" />
        </mxCell>
        <mxCell id="9EY23KbuOXxdsdeV2lle-20" value="DEVOPS-&amp;lt;ipa_login&amp;gt;" style="text;html=1;strokeColor=none;fillColor=none;align=center;verticalAlign=middle;whiteSpace=wrap;rounded=0;" parent="1" vertex="1">
          <mxGeometry x="435" y="505" width="125" height="20" as="geometry" />
        </mxCell>
        <mxCell id="9EY23KbuOXxdsdeV2lle-22" value="Системные приложения&lt;br&gt;.&lt;br&gt;.&lt;br&gt;&lt;div&gt;&lt;span&gt;.&lt;/span&gt;&lt;/div&gt;" style="text;html=1;strokeColor=none;fillColor=none;align=center;verticalAlign=middle;whiteSpace=wrap;rounded=0;" parent="1" vertex="1">
          <mxGeometry x="305" y="545" width="115" height="80" as="geometry" />
        </mxCell>
        <mxCell id="9EY23KbuOXxdsdeV2lle-23" value="Приложения&lt;br&gt;.&lt;br&gt;.&lt;br&gt;&lt;div&gt;&lt;span&gt;.&lt;/span&gt;&lt;/div&gt;" style="text;html=1;strokeColor=none;fillColor=none;align=center;verticalAlign=middle;whiteSpace=wrap;rounded=0;" parent="1" vertex="1">
          <mxGeometry x="437.5" y="545" width="115" height="80" as="geometry" />
        </mxCell>
        <mxCell id="BqMpfHAsSUKULL0gAlYH-1" value="&lt;span style=&quot;text-align: center&quot;&gt;Kubernetes (через runcher)&lt;/span&gt;" style="text;html=1;strokeColor=none;fillColor=none;align=left;verticalAlign=middle;whiteSpace=wrap;rounded=0;" vertex="1" parent="1">
          <mxGeometry x="290" y="446" width="280" height="20" as="geometry" />
        </mxCell>
        <mxCell id="BqMpfHAsSUKULL0gAlYH-3" value="" style="endArrow=none;dashed=1;html=1;" edge="1" parent="1">
          <mxGeometry width="50" height="50" relative="1" as="geometry">
            <mxPoint y="720" as="sourcePoint" />
            <mxPoint x="820" y="720" as="targetPoint" />
          </mxGeometry>
        </mxCell>
      </root>
    </mxGraphModel>
  </diagram>
</mxfile>
